<svg width="115" height="109" viewBox="0 0 115 109" fill="none" xmlns="http://www.w3.org/2000/svg">
<path opacity="0.2" d="M54.5576 107.481C85.208 109.705 114.096 107.481 114.632 102.666C114.632 100.794 89.1768 99.2772 57.7759 99.2772C26.375 99.2772 0 100.794 0 102.666C0 104.537 28.3516 105.578 54.5576 107.481Z" fill="black"/>
<rect x="11.4156" y="0.0976257" width="74.9153" height="100.74" rx="4.07743" fill="#3C5C55"/>
<rect x="14.983" y="4.86057" width="67.7805" height="91.2141" rx="4.07743" fill="url(#paint0_linear_7518_2043)"/>
<path d="M30.2357 16.4239H31.6669C32.2265 16.4239 32.6577 16.0019 32.6577 15.4652C32.6577 15.1166 32.4696 14.8368 32.1944 14.6946C32.3366 14.557 32.4283 14.3643 32.4283 14.135C32.4283 13.5983 31.9926 13.1671 31.4605 13.1671H30.2357V16.4239ZM30.965 14.4836V13.8322H31.3779C31.5751 13.8322 31.7173 13.9836 31.7173 14.1625C31.7173 14.3368 31.5751 14.4836 31.3779 14.4836H30.965ZM30.965 15.7542V15.1028H31.6027C31.7999 15.1028 31.9467 15.2496 31.9467 15.4285C31.9467 15.612 31.7999 15.7542 31.6072 15.7542H30.965ZM34.8309 15.7313L35.7804 14.4148V16.4239H36.5144V13.1671H35.8492L34.8309 14.5707L33.8126 13.1671H33.1474V16.4239H33.8768V14.4148L34.8309 15.7313ZM37.2015 16.4239H37.9308V13.1671H37.2015V16.4239ZM41.1473 16.479C41.8262 16.479 42.3904 16.1258 42.6702 15.5891L42.028 15.2404C41.8446 15.5661 41.5556 15.7726 41.1473 15.7726C40.6152 15.7726 40.1978 15.323 40.1978 14.7955C40.1978 14.268 40.6152 13.8184 41.1473 13.8184C41.5556 13.8184 41.8446 14.0249 42.028 14.3505L42.6702 14.0019C42.3904 13.4652 41.8262 13.112 41.1473 13.112C40.2161 13.112 39.4638 13.8689 39.4638 14.7955C39.4638 15.7221 40.2161 16.479 41.1473 16.479ZM42.6718 16.4239H43.4333L43.7223 15.7359H45.0709L45.3599 16.4239H46.1213L44.7269 13.1671H44.0663L42.6718 16.4239ZM43.9883 15.1028L44.3966 14.1212L44.8048 15.1028H43.9883ZM46.4608 16.4239H48.5388V15.7267H47.1901V13.1671H46.4608V16.4239ZM50.3439 16.479C51.0228 16.479 51.587 16.1258 51.8668 15.5891L51.2246 15.2404C51.0412 15.5661 50.7522 15.7726 50.3439 15.7726C49.8118 15.7726 49.3944 15.323 49.3944 14.7955C49.3944 14.268 49.8118 13.8184 50.3439 13.8184C50.7522 13.8184 51.0412 14.0249 51.2246 14.3505L51.8668 14.0019C51.587 13.4652 51.0228 13.112 50.3439 13.112C49.4127 13.112 48.6605 13.8689 48.6605 14.7955C48.6605 15.7221 49.4127 16.479 50.3439 16.479ZM53.596 16.479C54.3758 16.479 54.9354 15.9469 54.9354 15.1349V13.1671H54.206V15.1441C54.206 15.534 53.9583 15.7726 53.596 15.7726C53.2336 15.7726 52.9859 15.534 52.9859 15.1441V13.1671H52.2565V15.1349C52.2565 15.9469 52.8116 16.479 53.596 16.479ZM55.5857 16.4239H57.6637V15.7267H56.3151V13.1671H55.5857V16.4239ZM57.7681 16.4239H58.5295L58.8185 15.7359H60.1671L60.4561 16.4239H61.2176L59.8231 13.1671H59.1626L57.7681 16.4239ZM59.0846 15.1028L59.4928 14.1212L59.9011 15.1028H59.0846ZM61.8172 16.4239H62.5511V13.8643H63.3905V13.1671H60.9869V13.8643H61.8172V16.4239ZM65.2117 16.479C66.1383 16.479 66.8952 15.7221 66.8952 14.7955C66.8952 13.8689 66.1383 13.112 65.2117 13.112C64.2805 13.112 63.5282 13.8689 63.5282 14.7955C63.5282 15.7221 64.2805 16.479 65.2117 16.479ZM65.2117 15.7726C64.6796 15.7726 64.2622 15.323 64.2622 14.7955C64.2622 14.268 64.6796 13.8184 65.2117 13.8184C65.7392 13.8184 66.1566 14.268 66.1566 14.7955C66.1566 15.323 65.7392 15.7726 65.2117 15.7726ZM67.3984 16.4239H68.1278V15.0799H68.247L69.3296 16.4239H70.2057L69.0544 14.9882C69.4672 14.8414 69.692 14.5707 69.692 14.1487C69.692 13.6074 69.2975 13.1671 68.6828 13.1671H67.3984V16.4239ZM68.1278 14.4606V13.8368H68.5957C68.8113 13.8368 68.9672 13.9515 68.9672 14.1487C68.9672 14.3368 68.8113 14.4606 68.5957 14.4606H68.1278Z" fill="#CACEE0"/>
<path fill-rule="evenodd" clip-rule="evenodd" d="M69.6828 68.7916H41.1437V66.8864H69.6828V68.7916Z" fill="#CACEE0"/>
<path fill-rule="evenodd" clip-rule="evenodd" d="M69.6887 72.651H41.2247V70.578H69.6887V72.651Z" fill="#CACEE0"/>
<path fill-rule="evenodd" clip-rule="evenodd" d="M69.6829 76.413H41.1437V74.5078H69.6829V76.413Z" fill="#CACEE0"/>
<path fill-rule="evenodd" clip-rule="evenodd" d="M69.6887 80.1653H41.2247V78.3514H69.6887V80.1653Z" fill="#CACEE0"/>
<path fill-rule="evenodd" clip-rule="evenodd" d="M69.6829 84.0342H41.1437V82.129H69.6829V84.0342Z" fill="#CACEE0"/>
<path fill-rule="evenodd" clip-rule="evenodd" d="M55.4133 87.8444H41.1437V85.9391H55.4133V87.8444Z" fill="#CACEE0"/>
<path d="M61.7852 37.8015H62.458V36.7129H63.0391V36.089H62.458V33.4591H61.8586L59.5406 36.1685V36.7129H61.7852V37.8015ZM61.7852 36.089H60.3846L61.7852 34.4621V36.089ZM64.0808 37.8015H64.7536V33.4591H63.72L63.2062 34.1257H64.0808V37.8015ZM62.0299 42.615C62.0299 41.9484 61.4856 41.4102 60.825 41.4102C60.1584 41.4102 59.6201 41.9484 59.6201 42.615C59.6201 43.2756 60.1584 43.8199 60.825 43.8199C61.4856 43.8199 62.0299 43.2756 62.0299 42.615ZM60.721 45.8015H61.4305L64.1828 41.4591H63.4733L60.721 45.8015ZM60.2134 42.615C60.2134 42.2786 60.4825 41.9973 60.825 41.9973C61.1675 41.9973 61.4366 42.2786 61.4366 42.615C61.4366 42.9514 61.1675 43.2328 60.825 43.2328C60.4825 43.2328 60.2134 42.9514 60.2134 42.615ZM65.2837 44.6456C65.2837 43.9789 64.7393 43.4407 64.0788 43.4407C63.4121 43.4407 62.8739 43.9789 62.8739 44.6456C62.8739 45.3061 63.4121 45.8505 64.0788 45.8505C64.7393 45.8505 65.2837 45.3061 65.2837 44.6456ZM63.4611 44.6456C63.4611 44.3092 63.7363 44.0279 64.0788 44.0279C64.4152 44.0279 64.6843 44.3092 64.6843 44.6456C64.6843 44.982 64.4152 45.2633 64.0788 45.2633C63.7363 45.2633 63.4611 44.982 63.4611 44.6456Z" fill="white"/>
<path d="M42.0772 25.8641C46.1096 24.1154 50.6452 23.9149 54.8162 25.3009C58.9873 26.687 62.5008 29.5622 64.6846 33.3765L49.1837 42.2513L42.0772 25.8641Z" fill="#7C83A7"/>
<path d="M64.6688 33.3489C66.8594 37.1594 67.5682 41.6437 66.6595 45.944C65.7509 50.2444 63.2886 54.0587 59.7437 56.6572L49.1837 42.2513L64.6688 33.3489Z" fill="#FCDBAC"/>
<path d="M59.7587 56.6462C57.2173 58.5132 54.227 59.6741 51.0916 60.0109C47.9562 60.3478 44.7875 59.8485 41.9076 58.564C39.0277 57.2794 36.5391 55.2553 34.6949 52.6973C32.8507 50.1394 31.7166 47.1388 31.4078 44.0005L49.1837 42.2513L59.7587 56.6462Z" fill="#F3C179"/>
<path d="M31.6221 38.9902C32.1557 36.1171 33.3859 33.4188 35.2051 31.1319C37.0243 28.845 39.3767 27.0393 42.0562 25.8732L49.1837 42.2513L31.6221 38.9902Z" fill="#657E79"/>
<path d="M31.4142 44.0647C31.2408 42.3661 31.3119 40.6515 31.6253 38.9731L49.1837 42.2513L31.4142 44.0647Z" fill="#3C5C55"/>
<ellipse cx="45.425" cy="2.47875" rx="1.18912" ry="1.19078" fill="#3C5C55"/>
<rect x="47.3272" y="2.00284" width="8.08606" height="1.19078" fill="#3C5C55"/>
<path d="M66.7095 50.5915C66.7095 49.0103 67.9914 47.7285 69.5726 47.7285H107.346C108.927 47.7285 110.209 49.0103 110.209 50.5915V102.142C110.209 103.723 108.927 105.005 107.346 105.005H69.5726C67.9914 105.005 66.7095 103.723 66.7095 102.142V50.5915Z" fill="#4B5274"/>
<rect x="69.4879" y="51.0651" width="37.9465" height="7.78519" fill="#CACEE0"/>
<rect x="69.4864" y="60.8901" width="8.51477" height="6.85838" fill="#CACEE0"/>
<rect x="69.4864" y="69.4161" width="8.51489" height="6.85838" fill="#CACEE0"/>
<rect x="69.4864" y="77.9425" width="8.51489" height="6.85838" fill="#CACEE0"/>
<rect x="69.4864" y="86.4693" width="8.51489" height="6.85838" fill="#CACEE0"/>
<rect x="69.4864" y="94.9961" width="18.5105" height="6.85838" fill="#CACEE0"/>
<rect x="79.2969" y="60.8893" width="8.51483" height="6.85838" fill="#CACEE0"/>
<rect x="79.2969" y="69.4161" width="8.51483" height="6.85838" fill="#CACEE0"/>
<rect x="79.2969" y="77.9425" width="8.51483" height="6.85838" fill="#CACEE0"/>
<rect x="79.2969" y="86.4693" width="8.51483" height="6.85838" fill="#CACEE0"/>
<rect x="89.2925" y="60.8893" width="8.32965" height="6.85838" fill="#CACEE0"/>
<rect x="89.2925" y="69.4161" width="8.32965" height="6.85838" fill="#CACEE0"/>
<rect x="89.2925" y="77.9425" width="8.32965" height="6.85838" fill="#CACEE0"/>
<rect x="89.2925" y="86.4693" width="8.32965" height="6.85838" fill="#CACEE0"/>
<rect x="89.2925" y="94.9961" width="8.32965" height="6.85838" fill="#CACEE0"/>
<rect x="98.918" y="60.8893" width="8.51483" height="6.85838" fill="#CACEE0"/>
<rect x="98.918" y="69.4161" width="8.51483" height="6.85838" fill="#CACEE0"/>
<rect x="98.918" y="77.9425" width="8.51483" height="6.85838" fill="#CACEE0"/>
<rect x="98.918" y="86.4693" width="8.51483" height="15.385" fill="#F3C179"/>
<rect x="10.7476" y="21.5404" width="1.55474" height="8.55106" fill="#3C5C55"/>
<rect x="10.7476" y="30.8686" width="1.55474" height="8.55106" fill="#3C5C55"/>
<rect x="66.7178" y="23.0951" width="8.81019" height="1.81386" fill="#CACEE0"/>
<line x1="67.0551" y1="23.9869" x2="60.577" y2="28.392" stroke="#CACEE0" stroke-width="0.277274"/>
<rect x="25.5176" y="23.0952" width="8.81019" height="1.81386" fill="#CACEE0"/>
<line x1="33.6547" y1="24.2988" x2="37.5416" y2="28.7039" stroke="#CACEE0" stroke-width="0.277274"/>
<rect x="23.4444" y="57.0406" width="8.81019" height="1.81386" fill="#CACEE0"/>
<line x1="31.4016" y1="58.2198" x2="36.5841" y2="54.8512" stroke="#CACEE0" stroke-width="0.277274"/>
<rect x="71.6415" y="39.1608" width="8.81019" height="1.81386" fill="#CACEE0"/>
<line x1="66.7183" y1="39.7994" x2="71.6416" y2="39.7994" stroke="#CACEE0" stroke-width="0.277274"/>
<rect x="19.5576" y="39.9379" width="7.51457" height="1.81386" fill="#CACEE0"/>
<path d="M24.7398 40.8656L31.4064 40.8656" stroke="#CACEE0" stroke-width="0.277274"/>
<rect x="20.8535" y="66.8871" width="17.1021" height="20.989" fill="#CACEE0"/>
<defs>
<linearGradient id="paint0_linear_7518_2043" x1="48.8733" y1="4.86057" x2="48.8733" y2="96.0746" gradientUnits="userSpaceOnUse">
<stop stop-color="white"/>
<stop offset="1" stop-color="#EFF2FF"/>
</linearGradient>
</defs>
</svg>
